HIERARCHY
ROOT joint_Root
{
	OFFSET 0.0 0.0 0.0
	CHANNELS 6 Xposition Yposition Zposition Zrotation Xrotation Yrotation 
	JOINT Hips
	{
		OFFSET -0.726466 93.3139 -2.00062
		CHANNELS 6 Xposition Yposition Zposition Zrotation Xrotation Yrotation 
		JOINT Spine
		{
			OFFSET 15.7357 0.0 0.0
			CHANNELS 6 Xposition Yposition Zposition Zrotation Xrotation Yrotation 
			JOINT Chest
			{
				OFFSET 8.98455 -0.406207 0.0
				CHANNELS 6 Xposition Yposition Zposition Zrotation Xrotation Yrotation 
				JOINT Neck
				{
					OFFSET 16.3773 0.0 0.0
					CHANNELS 6 Xposition Yposition Zposition Zrotation Xrotation Yrotation 
					JOINT Head
					{
						OFFSET 6.45672 0.0 0.0
						CHANNELS 6 Xposition Yposition Zposition Zrotation Xrotation Yrotation 
						End Site
						{
							OFFSET 0.0 0.0 0.0
						}
					}
				}
				JOINT Shoulder_L
				{
					OFFSET 12.9942 -0.242716 4.98039
					CHANNELS 6 Xposition Yposition Zposition Zrotation Xrotation Yrotation 
					JOINT UpperArm_L
					{
						OFFSET 5.34809 0.0 0.0
						CHANNELS 6 Xposition Yposition Zposition Zrotation Xrotation Yrotation 
						JOINT LowerArm_L
						{
							OFFSET 24.3286 1.87007e-05 0.0
							CHANNELS 6 Xposition Yposition Zposition Zrotation Xrotation Yrotation 
							JOINT Hand_L
							{
								OFFSET 22.2916 0.0 0.0
								CHANNELS 6 Xposition Yposition Zposition Zrotation Xrotation Yrotation 
								End Site
								{
									OFFSET 0.0 0.0 0.0
								}
							}
						}
					}
				}
				JOINT Shoulder_R
				{
					OFFSET 12.9945 -0.242716 -4.98039
					CHANNELS 6 Xposition Yposition Zposition Zrotation Xrotation Yrotation 
					JOINT UpperArm_R
					{
						OFFSET -5.34813 0.0 0.0
						CHANNELS 6 Xposition Yposition Zposition Zrotation Xrotation Yrotation 
						JOINT LowerArm_R
						{
							OFFSET -24.3289 0.000322201 0.0
							CHANNELS 6 Xposition Yposition Zposition Zrotation Xrotation Yrotation 
							JOINT Hand_R
							{
								OFFSET -22.2915 -0.000108084 0.0
								CHANNELS 6 Xposition Yposition Zposition Zrotation Xrotation Yrotation 
								End Site
								{
									OFFSET 0.0 0.0 0.0
								}
							}
						}
					}
				}
			}
		}
		JOINT UpperLeg_L
		{
			OFFSET -2.19248 -6.46944 0.0
			CHANNELS 6 Xposition Yposition Zposition Zrotation Xrotation Yrotation 
			JOINT LowerLeg_L
			{
				OFFSET 39.0811 0.0 -1.23785e-05
				CHANNELS 6 Xposition Yposition Zposition Zrotation Xrotation Yrotation 
				JOINT Foot_L
				{
					OFFSET 40.9854 0.0 -1.26872e-05
					CHANNELS 6 Xposition Yposition Zposition Zrotation Xrotation Yrotation 
					JOINT Toes_L
					{
						OFFSET 11.7543 0.0 0.0
						CHANNELS 6 Xposition Yposition Zposition Zrotation Xrotation Yrotation 
						End Site
						{
							OFFSET 0.0 0.0 0.0
						}
					}
				}
			}
		}
		JOINT UpperLeg_R
		{
			OFFSET -2.19251 6.46944 0.0
			CHANNELS 6 Xposition Yposition Zposition Zrotation Xrotation Yrotation 
			JOINT LowerLeg_R
			{
				OFFSET -39.0811 -0.00228153 -0.0401928
				CHANNELS 6 Xposition Yposition Zposition Zrotation Xrotation Yrotation 
				JOINT Foot_R
				{
					OFFSET -40.9854 0.0 0.0
					CHANNELS 6 Xposition Yposition Zposition Zrotation Xrotation Yrotation 
					JOINT Toes_R
					{
						OFFSET -11.7543 0.0 0.0
						CHANNELS 6 Xposition Yposition Zposition Zrotation Xrotation Yrotation 
						End Site
						{
							OFFSET 0.0 0.0 0.0
						}
					}
				}
			}
		}
	}
}
MOTION
Frames:	4
Frame Time:	0.0333333
0.000000 0.000000 0.000000 0.000000 0.000000 -0.000000 -4.390240 87.172200 -57.246900 84.496700 3.654800 4.846080 15.735700 0.000005 -0.000001 79.231200 80.637500 -76.543000 8.984550 -0.406207 -0.000000 10.729300 -3.404420 5.694470 16.377300 -0.000001 -0.000001 7.005040 -1.050900 -2.088410 6.456720 -0.000001 -0.000000 1.589300 2.558650 3.900160 12.994200 -0.242716 4.980390 -88.652100 -3.800480 -70.456300 5.348090 -0.000007 -0.000001 -56.113600 36.528800 -21.471500 24.328600 0.000019 0.000005 5.505920 5.117270 -47.224200 22.291600 -0.000001 0.000005 7.515270 5.578340 -10.122700 12.994500 -0.242716 -4.980390 87.671200 5.283390 -66.172100 -5.348130 -0.000001 -0.000004 -57.840200 32.304200 -7.762790 -24.328900 0.000322 -0.000009 3.519110 5.783040 -31.405000 -22.291500 -0.000108 -0.000004 0.730334 5.542850 -8.372710 -2.192480 -6.469440 -0.000000 -169.018000 -0.939725 -6.367800 39.081100 -0.000007 -0.000012 0.049860 -0.017087 71.077000 40.985400 -0.000006 -0.000013 8.167950 -7.172130 -46.471800 11.754300 -0.000000 0.000003 -0.006834 -0.078244 -19.761900 -2.192510 6.469440 -0.000001 -172.696000 10.377700 157.380000 -39.081100 -0.002282 -0.040193 0.138166 -0.131696 45.689400 -40.985400 0.000008 0.000006 6.888540 -7.328720 -67.948800 -11.754300 -0.000006 -0.000006 -0.008121 -0.089017 -20.198100
0.000000 0.000000 0.000000 0.000000 0.000000 -0.000000 -4.316290 88.179000 -53.759000 85.568200 2.367800 4.667680 15.735700 0.000005 -0.000001 82.643300 80.830700 -80.484800 8.984550 -0.406207 -0.000000 10.474700 -2.281190 4.523930 16.377300 -0.000001 -0.000001 7.277770 -1.063510 -2.031760 6.456720 -0.000001 -0.000000 1.844800 1.801490 3.911240 12.994200 -0.242716 4.980390 -88.506800 -4.060520 -69.790200 5.348090 -0.000007 -0.000001 -58.024700 38.277500 -18.855900 24.328600 0.000019 0.000005 5.873840 5.800430 -45.509300 22.291600 -0.000001 0.000005 7.083120 5.571200 -9.748750 12.994500 -0.242716 -4.980390 87.820800 5.084060 -66.761600 -5.348130 -0.000001 -0.000004 -56.345400 33.673700 -11.630700 -24.328900 0.000322 -0.000009 3.415850 5.277830 -32.989700 -22.291500 -0.000108 -0.000004 0.983722 5.542100 -8.338680 -2.192480 -6.469440 -0.000000 -171.423000 -1.995390 -11.627900 39.081100 -0.000007 -0.000012 0.032067 -0.009954 72.744400 40.985400 -0.000006 -0.000013 7.496550 -5.907280 -50.713700 11.754300 -0.000000 0.000003 -0.006652 -0.076658 -19.697200 -2.192510 6.469440 -0.000001 -174.073000 9.298840 161.402000 -39.081100 -0.002282 -0.040193 0.115598 -0.120307 43.035500 -40.985400 0.000008 0.000006 6.517830 -7.023910 -68.958300 -11.754300 -0.000006 -0.000006 -0.008507 -0.092121 -20.324800
0.000000 0.000000 0.000000 0.000000 0.000000 -0.000000 -4.086260 89.188000 -50.508900 86.726600 1.175670 4.140950 15.735700 0.000005 -0.000001 86.011700 81.129300 -84.383400 8.984550 -0.406207 -0.000000 9.953180 -1.195200 3.358550 16.377300 -0.000001 -0.000001 7.679280 -0.997776 -1.865040 6.456720 -0.000001 -0.000000 2.012290 1.015680 3.837100 12.994200 -0.242716 4.980390 -88.357300 -4.289850 -69.023800 5.348090 -0.000007 -0.000001 -60.818100 38.757000 -15.395900 24.328600 0.000019 0.000005 5.375330 5.626300 -43.822000 22.291600 -0.000001 0.000005 6.289410 5.568260 -9.597690 12.994500 -0.242716 -4.980390 87.986000 4.835460 -67.355400 -5.348130 -0.000001 -0.000004 -53.963800 34.906200 -15.671100 -24.328900 0.000322 -0.000009 3.266710 4.633660 -35.253300 -22.291500 -0.000108 -0.000004 1.299810 5.542130 -8.339880 -2.192480 -6.469440 -0.000000 -173.849000 -2.895540 -16.704900 39.081100 -0.000007 -0.000012 0.021861 -0.007555 70.921100 40.985400 -0.000006 -0.000013 6.550310 -4.321780 -54.536800 11.754300 -0.000000 0.000003 -0.007576 -0.084545 -20.019100 -2.192510 6.469440 -0.000001 -175.673000 9.113620 165.120000 -39.081100 -0.002282 -0.040193 0.091967 -0.106919 39.675100 -40.985400 0.000008 0.000006 6.396330 -5.869770 -69.444800 -11.754300 -0.000006 -0.000006 -0.008649 -0.093252 -20.371100
0.000000 0.000000 0.000000 0.000000 0.000000 -0.000000 -3.815070 90.091900 -47.320600 87.839800 -0.328695 3.766820 15.735700 0.000005 -0.000001 89.664200 81.299000 -88.587900 8.984550 -0.406207 -0.000000 9.637320 -0.083837 2.157890 16.377300 -0.000001 -0.000001 7.943890 -0.711346 -1.632440 6.456720 -0.000001 -0.000000 2.126980 0.311922 3.830070 12.994200 -0.242716 4.980390 -88.235200 -4.403810 -68.136300 5.348090 -0.000007 -0.000001 -63.492900 38.270200 -11.304200 24.328600 0.000019 0.000005 5.033710 5.382350 -43.198000 22.291600 -0.000001 0.000005 5.855690 5.561930 -9.282560 12.994500 -0.242716 -4.980390 88.151300 4.599060 -68.073900 -5.348130 -0.000001 -0.000004 -51.207100 35.440500 -20.020400 -24.328900 0.000322 -0.000009 3.172430 4.153550 -37.435700 -22.291500 -0.000108 -0.000004 1.369100 5.546230 -8.529510 -2.192480 -6.469440 -0.000000 -175.817000 -4.038280 -20.497500 39.081100 -0.000007 -0.000012 0.024318 -0.011097 65.459700 40.985400 -0.000006 -0.000013 5.405390 -3.886520 -57.367500 11.754300 -0.000000 0.000003 -0.006260 -0.073185 -19.555500 -2.192510 6.469440 -0.000001 -177.362000 8.815980 169.015000 -39.081100 -0.002282 -0.040193 0.070822 -0.093065 35.967100 -40.985400 0.000008 0.000006 6.340550 -4.416310 -69.624300 -11.754300 -0.000006 -0.000006 -0.008670 -0.093417 -20.377800
